HIERARCHY
ROOT hip
{
  OFFSET 0 0 0
  CHANNELS 6 Xposition Yposition Zposition Zrotation Yrotation Xrotation
  JOINT abdomen
  {
    OFFSET 0 20.6881 -0.73152
    CHANNELS 3 Zrotation Xrotation Yrotation
    JOINT chest
    {
      OFFSET 0 11.7043 -0.48768
      CHANNELS 3 Zrotation Xrotation Yrotation
      JOINT neck
      {
        OFFSET 0 22.1894 -2.19456
        CHANNELS 3 Zrotation Xrotation Yrotation
        JOINT head
        {
          OFFSET -0.24384 7.07133 1.2192
          CHANNELS 3 Zrotation Xrotation Yrotation
          JOINT leftEye
          {
            OFFSET 4.14528 8.04674 8.04672
            CHANNELS 3 Zrotation Xrotation Yrotation
            End Site
            {
              OFFSET 1 0 0
            }
          }
          JOINT rightEye
          {
            OFFSET -3.6576 8.04674 8.04672
            CHANNELS 3 Zrotation Xrotation Yrotation
            End Site
            {
              OFFSET 1 0 0
            }
          }
        }
      }
      JOINT rCollar
      {
        OFFSET -2.68224 19.2634 -4.8768
        CHANNELS 3 Zrotation Xrotation Yrotation
        JOINT rShldr
        {
          OFFSET -8.77824 -1.95073 1.46304
          CHANNELS 3 Zrotation Xrotation Yrotation
          JOINT rForeArm
          {
            OFFSET -28.1742 -1.7115 0.48768
            CHANNELS 3 Zrotation Xrotation Yrotation
            JOINT rHand
            {
              OFFSET -22.5879 0.773209 7.07136
              CHANNELS 3 Zrotation Xrotation Yrotation
              JOINT rThumb1
              {
                OFFSET -1.2192 -0.487915 3.41376
                CHANNELS 3 Zrotation Xrotation Yrotation
                JOINT rThumb2
                {
                  OFFSET -3.37035 -0.52449 3.41376
                  CHANNELS 3 Zrotation Xrotation Yrotation
                  End Site
                  {
                    OFFSET -1.78271 -1.18214 1.43049
                  }
                }
              }
              JOINT rIndex1
              {
                OFFSET -7.75947 0.938293 5.60832
                CHANNELS 3 Zrotation Xrotation Yrotation
                JOINT rIndex2
                {
                  OFFSET -2.54057 -0.884171 1.56538
                  CHANNELS 3 Zrotation Xrotation Yrotation
                  End Site
                  {
                    OFFSET -1.62519 -0.234802 1.16502
                  }
                }
              }
              JOINT rMid1
              {
                OFFSET -8.24714 1.18213 3.41376
                CHANNELS 3 Zrotation Xrotation Yrotation
                JOINT rMid2
                {
                  OFFSET -3.10165 -0.590103 1.0647
                  CHANNELS 3 Zrotation Xrotation Yrotation
                  End Site
                  {
                    OFFSET -2.48547 -0.328903 0.83742
                  }
                }
              }
              JOINT rRing1
              {
                OFFSET -8.82822 0.546677 1.51678
                CHANNELS 3 Zrotation Xrotation Yrotation
                JOINT rRing2
                {
                  OFFSET -2.60934 -0.819778 -0.0198488
                  CHANNELS 3 Zrotation Xrotation Yrotation
                  End Site
                  {
                    OFFSET -2.33842 -0.294052 0.168128
                  }
                }
              }
              JOINT rPinky1
              {
                OFFSET -8.27202 -0.0477905 -0.4584
                CHANNELS 3 Zrotation Xrotation Yrotation
                JOINT rPinky2
                {
                  OFFSET -1.82734 -0.647385 -0.700984
                  CHANNELS 3 Zrotation Xrotation Yrotation
                  End Site
                  {
                    OFFSET -1.69225 -0.51767 -0.607171
                  }
                }
              }
            }
          }
        }
      }
      JOINT lCollar
      {
        OFFSET 2.68224 19.2634 -4.8768
        CHANNELS 3 Zrotation Xrotation Yrotation
        JOINT lShldr
        {
          OFFSET 8.77824 -1.95073 1.46304
          CHANNELS 3 Zrotation Xrotation Yrotation
          JOINT lForeArm
          {
            OFFSET 28.1742 -1.7115 0.48768
            CHANNELS 3 Zrotation Xrotation Yrotation
            JOINT lHand
            {
              OFFSET 22.5879 0.773209 7.07136
              CHANNELS 3 Zrotation Xrotation Yrotation
              JOINT lThumb1
              {
                OFFSET 1.2192 -0.487915 3.41376
                CHANNELS 3 Zrotation Xrotation Yrotation
                JOINT lThumb2
                {
                  OFFSET 3.37035 -0.52449 3.41376
                  CHANNELS 3 Zrotation Xrotation Yrotation
                  End Site
                  {
                    OFFSET 1.78271 -1.18214 1.43049
                  }
                }
              }
              JOINT lIndex1
              {
                OFFSET 7.75947 0.938293 5.60832
                CHANNELS 3 Zrotation Xrotation Yrotation
                JOINT lIndex2
                {
                  OFFSET 2.54057 -0.884171 1.56538
                  CHANNELS 3 Zrotation Xrotation Yrotation
                  End Site
                  {
                    OFFSET 1.62519 -0.234802 1.16502
                  }
                }
              }
              JOINT lMid1
              {
                OFFSET 8.24714 1.18213 3.41376
                CHANNELS 3 Zrotation Xrotation Yrotation
                JOINT lMid2
                {
                  OFFSET 3.10165 -0.590103 1.0647
                  CHANNELS 3 Zrotation Xrotation Yrotation
                  End Site
                  {
                    OFFSET 2.48547 -0.328903 0.83742
                  }
                }
              }
              JOINT lRing1
              {
                OFFSET 8.82822 0.546677 1.51678
                CHANNELS 3 Zrotation Xrotation Yrotation
                JOINT lRing2
                {
                  OFFSET 2.60934 -0.819778 -0.0198488
                  CHANNELS 3 Zrotation Xrotation Yrotation
                  End Site
                  {
                    OFFSET 2.33842 -0.294052 0.168128
                  }
                }
              }
              JOINT lPinky1
              {
                OFFSET 8.27202 -0.0477905 -0.4584
                CHANNELS 3 Zrotation Xrotation Yrotation
                JOINT lPinky2
                {
                  OFFSET 1.82734 -0.647385 -0.700984
                  CHANNELS 3 Zrotation Xrotation Yrotation
                  End Site
                  {
                    OFFSET 1.69225 -0.51767 -0.607171
                  }
                }
              }
            }
          }
        }
      }
    }
  }
  JOINT rButtock
  {
    OFFSET -8.77824 4.35084 1.2192
    CHANNELS 3 Zrotation Xrotation Yrotation
    JOINT rThigh
    {
      OFFSET 0 -1.70687 -2.19456
      CHANNELS 3 Zrotation Xrotation Yrotation
      JOINT rShin
      {
        OFFSET 0 -36.8199 0.73152
        CHANNELS 3 Zrotation Xrotation Yrotation
        JOINT rFoot
        {
          OFFSET 0.73152 -45.1104 -5.12064
          CHANNELS 3 Zrotation Xrotation Yrotation
          End Site
          {
            OFFSET -1.1221 -3.69964 12.103
          }
        }
      }
    }
  }
  JOINT lButtock
  {
    OFFSET 8.77824 4.35084 1.2192
    CHANNELS 3 Zrotation Xrotation Yrotation
    JOINT lThigh
    {
      OFFSET 0 -1.70687 -2.19456
      CHANNELS 3 Zrotation Xrotation Yrotation
      JOINT lShin
      {
        OFFSET 0 -36.8199 0.73152
        CHANNELS 3 Zrotation Xrotation Yrotation
        JOINT lFoot
        {
          OFFSET -0.73152 -45.1104 -5.12064
          CHANNELS 3 Zrotation Xrotation Yrotation
          End Site
          {
            OFFSET 1.1221 -3.69964 12.103
          }
        }
      }
    }
  }
}
MOTION
Frames:	4
Frame Time:	0.03333
0.011324044317007065 61.80580258369446 0.12839026749134064 -2.278292179107666 2.5432121753692627 5.694482803344727 -2.3093514442443848 13.88223934173584 3.0120551586151123 3.1597297191619873 -9.250935554504395 0.8940609097480774 -5.533725738525391 14.83556842803955 -5.282678604125977 8.481473922729492 -24.82143783569336 -7.827622890472412 -0.046566687524318695 -0.03958051651716232 -0.030450304970145226 0.10406085103750229 0.00016454909928143024 -0.021380417048931122 0.05605332925915718 -0.004361018072813749 -0.06882797926664352 52.602699279785156 38.17357635498047 10.5628080368042 -28.335987091064453 -31.512556076049805 69.52849578857422 -0.08288119733333588 2.3549985885620117 0.273568719625473 0.024508893489837646 -0.06026577576994896 -0.030590908601880074 0.0263350997120142 0.034975647926330566 -0.041214317083358765 0.002036208985373378 -0.058084260672330856 0.07474812865257263 7.732870578765869 5.464788436889648 0.40965500473976135 -0.017369497567415237 0.029900329187512398 0.014210278168320656 2.9303929805755615 0.9714803695678711 0.1715727597475052 -0.04783064126968384 0.018680203706026077 0.008060218766331673 10.34961986541748 0.7219280004501343 0.08874528855085373 0.07250961661338806 0.10140616446733475 -0.002620622282847762 2.3274476528167725 -0.7834255695343018 -0.19332733750343323 -0.01938460022211075 -0.13355617225170135 0.03904418274760246 -57.833961486816406 38.57599639892578 -22.3139705657959 28.33220100402832 -34.09394836425781 -73.73313903808594 0.4805467426776886 -18.030778884887695 2.7718939781188965 -0.01694173365831375 -0.05578361824154854 0.036759767681360245 -0.05190842226147652 -0.062389176338911057 0.031016243621706963 -0.024408532306551933 -0.08464811742305756 0.03403443098068237 -7.836385726928711 5.557252883911133 -0.42939648032188416 -0.007117725908756256 -0.005379375535994768 0.017964381724596024 -2.8780508041381836 0.9603259563446045 -0.14088118076324463 0.00611456111073494 -0.00877345260232687 -0.026338737457990646 -10.167267799377441 0.7093570828437805 -0.04776110500097275 -0.03404148295521736 -0.09071949869394302 -0.028398556634783745 -2.1312415599823 -0.7168292999267578 0.23403584957122803 0.024221345782279968 -0.06362220644950867 -0.019766759127378464 -28.87711524963379 -44.6048698425293 -24.263124465942383 -1.6418830156326294 67.1457748413086 2.2541487216949463 -4.933927536010742 -12.061145782470703 -13.378087997436523 -0.02292706072330475 0.05033382400870323 -0.006772343069314957 34.5020866394043 -43.93159484863281 27.155776977539062 1.632761836051941 69.8793716430664 -2.236224889755249 4.251029014587402 -11.269079208374023 14.228532791137695
0.09395154193043709 62.25932240486145 0.21395087242126465 -1.6965961456298828 1.654205083847046 5.017350196838379 -2.0760064125061035 14.124726295471191 2.669893503189087 2.964564085006714 -9.223200798034668 0.8647462725639343 -5.231044292449951 14.94442081451416 -5.1866044998168945 7.907433032989502 -24.733800888061523 -7.830777645111084 -0.06656623631715775 -0.008031781762838364 0.05908728763461113 0.157565638422966 -0.007653467357158661 -0.012734612450003624 0.044471241533756256 0.033995404839515686 -0.045988429337739944 54.690765380859375 37.62180709838867 8.726398468017578 -28.71652603149414 -31.514867782592773 69.594482421875 -0.1939305067062378 2.5491130352020264 0.3661744296550751 -0.06460633873939514 -0.030991464853286743 -0.04362523928284645 -0.0034900179598480463 0.03182382136583328 -0.048250485211610794 -0.05097540467977524 -0.10243594646453857 0.07594246417284012 7.732105255126953 5.41056489944458 0.44182419776916504 0.020047662779688835 -0.04154937341809273 0.0417136512696743 2.902092456817627 0.9357557892799377 0.18934044241905212 0.010293737053871155 0.02593517117202282 -0.013171271421015263 10.278210639953613 0.7776744365692139 0.11254589259624481 -0.0005068150931037962 0.028798898681998253 -0.02462940476834774 2.3092801570892334 -0.7750570774078369 -0.12179212272167206 0.017802394926548004 -0.015192914754152298 0.042222097516059875 -57.72004318237305 38.800392150878906 -21.806854248046875 28.361804962158203 -33.7589111328125 -73.17764282226562 0.43277499079704285 -16.529125213623047 2.759680986404419 -0.08397714793682098 -0.02586050145328045 0.06008399277925491 -0.0311755184084177 -0.016907839104533195 -0.01915579102933407 -0.010153412818908691 -0.006716927979141474 0.026829099282622337 -7.762482643127441 5.552873611450195 -0.44441455602645874 0.052546460181474686 -0.02491816133260727 0.013290267437696457 -2.8840901851654053 1.0456101894378662 -0.06546693295240402 0.0010494771413505077 -0.036682259291410446 -0.008611463010311127 -10.260886192321777 0.6471981406211853 -0.023890450596809387 -0.09043175727128983 -0.0773145854473114 0.008130211383104324 -2.146606922149658 -0.7336311936378479 0.22364141047000885 0.0006729894084855914 -0.009092292748391628 -0.015711121261119843 -29.30488395690918 -44.16496658325195 -24.389598846435547 -1.6861337423324585 67.23831176757812 2.2538700103759766 -5.3824944496154785 -12.433394432067871 -13.61258316040039 0.0036005284637212753 0.042847659438848495 -0.0004927649279125035 33.317054748535156 -43.082061767578125 26.60484504699707 1.322225570678711 69.89836120605469 -1.7954415082931519 3.912541389465332 -10.498786926269531 14.335553169250488
0.32191406935453415 63.86372447013855 0.05910657346248627 113.73965454101562 -43.75933074951172 -77.85523223876953 -15.363417625427246 20.009939193725586 15.867886543273926 -5.237462520599365 -10.388450622558594 3.2017111778259277 1.0006502866744995 11.404911994934082 10.138387680053711 -13.623099327087402 -13.749968528747559 18.82380485534668 0.04611312970519066 0.03926582634449005 -0.04976499825716019 0.08322959393262863 -0.09034067392349243 -0.06947629153728485 0.043438222259283066 0.004967456683516502 -0.11841412633657455 12.620076179504395 43.97990036010742 40.532039642333984 -28.54631805419922 -32.93660354614258 72.16948699951172 -0.030120035633444786 11.416838645935059 1.804358959197998 -0.020079581066966057 -0.050996724516153336 0.01127758901566267 -0.03476853668689728 0.03894490376114845 0.06966392695903778 0.014897246845066547 -0.058032020926475525 0.13670846819877625 7.771720886230469 5.449690818786621 0.3786926865577698 -0.04735831171274185 -0.01851901225745678 0.045752353966236115 2.8602757453918457 0.9247879385948181 0.05287634953856468 0.021883709356188774 -0.060121115297079086 -0.10453084111213684 10.207429885864258 0.6386764645576477 0.06947842240333557 0.09395775198936462 -0.07273368537425995 -0.016636114567518234 2.2189223766326904 -0.7876050472259521 -0.11711466312408447 0.060398440808057785 0.09664184600114822 0.0116116339340806 -65.89262390136719 -12.05668830871582 8.629439353942871 27.8323917388916 -27.56658172607422 -63.56389617919922 2.780560255050659 -41.11486053466797 7.284145832061768 -0.03614019602537155 -0.03268633037805557 -0.12245752662420273 -0.09291066974401474 -0.022670170292258263 0.03411778807640076 -0.12116728723049164 -0.04594995826482773 0.09525628387928009 -7.749149799346924 5.336019992828369 -0.3323462903499603 0.06616009771823883 0.015369475819170475 0.1899293065071106 -2.843327522277832 0.9053919315338135 -0.12064815312623978 0.019970474764704704 0.09759018570184708 -0.1601991355419159 -10.265718460083008 0.68975430727005 0.0007347842329181731 0.08804478496313095 -0.02547122910618782 0.04366925358772278 -2.0787527561187744 -0.6476505994796753 0.2814760208129883 -0.016769859939813614 -0.046174269169569016 -0.03725937008857727 -55.49894332885742 -22.94810676574707 -13.096125602722168 0.07161097228527069 35.54932403564453 1.815902829170227 -4.640190124511719 -2.5609631538391113 -22.250268936157227 -0.05505524203181267 0.013346637599170208 0.030754337087273598 125.06385040283203 -19.517791748046875 104.39411163330078 176.9168243408203 62.13248825073242 -178.8770751953125 -4.841837406158447 -5.953768730163574 -8.237001419067383
0.6427179090678692 68.18651556968689 -0.379040464758873 118.21699523925781 -48.678646087646484 -79.4949722290039 -17.17057991027832 18.454742431640625 15.328032493591309 -6.801028251647949 -10.46374225616455 3.0533995628356934 1.6296457052230835 10.766154289245605 10.743098258972168 -16.28081703186035 -12.570208549499512 19.216899871826172 0.010110639967024326 -0.02787681110203266 -0.06528075039386749 0.0749504342675209 -0.06703552603721619 -0.04291008040308952 0.15772292017936707 0.025113914161920547 -0.02285034768283367 8.931633949279785 46.13254928588867 42.9957389831543 -28.39808464050293 -33.41107940673828 72.96102142333984 -0.1574544459581375 12.065382957458496 1.755941390991211 -0.08948471397161484 -0.07592955231666565 0.039821140468120575 -0.006228143814951181 0.062392283231019974 0.1375558078289032 0.05898619070649147 0.04125949367880821 0.050088949501514435 7.741972923278809 5.41163444519043 0.36752158403396606 -0.038285236805677414 -0.05497044324874878 -0.0052018980495631695 2.800287961959839 0.9628892540931702 0.10171341150999069 0.1045929491519928 -0.05075203999876976 -0.11949501186609268 10.25072956085205 0.7215137481689453 0.17302390933036804 0.03383588418364525 -0.10163261741399765 -0.032772526144981384 2.1496596336364746 -0.7351422905921936 -0.0734957903623581 0.13097959756851196 0.055258627980947495 -0.012597797438502312 -64.53439331054688 -10.932859420776367 9.829853057861328 27.761730194091797 -28.188322067260742 -64.18795776367188 2.4869117736816406 -39.59100341796875 6.852304458618164 -0.01753036119043827 0.04151700809597969 -0.08282218128442764 -0.06542855501174927 -0.020466435700654984 0.06683788448572159 -0.2017776519060135 -0.055760666728019714 0.18321429193019867 -7.690240383148193 5.351474285125732 -0.2898726463317871 0.0984753966331482 -0.038146696984767914 0.12855221331119537 -2.8493764400482178 0.9728511571884155 -0.14108799397945404 0.05414256080985069 0.07466157525777817 -0.10343652218580246 -10.317432403564453 0.7089254260063171 0.04612747207283974 0.016043657436966896 -0.025829976424574852 0.1086767315864563 -2.115856885910034 -0.717474639415741 0.24789723753929138 0.009529609233140945 -0.02306671254336834 -0.04107547178864479 -59.278404235839844 -31.58920669555664 -20.827436447143555 0.1108357161283493 33.42279052734375 2.3038690090179443 -2.532618522644043 -1.0404762029647827 -19.793333053588867 -0.1116471141576767 0.03941066563129425 0.04007377475500107 128.97572326660156 -12.442756652832031 109.81695556640625 177.56643676757812 52.60587692260742 -179.90382385253906 -5.489048480987549 -6.521065711975098 -8.781513214111328
